<svg xmlns="http://www.w3.org/2000/svg" enable-background="new 0 0 512 512" viewBox="0 0 512 512" id="twitter"><path fill="white" stroke="#231f20" stroke-miterlimit="10" d="M450,154.6c-0.1,0.1-0.2,0.2-0.3,0.3c0.1,2.4,0.2,4.8,0.3,7.2c0.1,2.6,0.1,5.1,0.1,7.7
	c0,157.9-128,285.8-285.8,285.8c-54.2,0-105-15.1-148.2-41.4c0,0,81.9,6.9,138-45.4c0,0-66.8-8.7-92-70.7c0,0,29.1,4.8,46.5,0
	c0,0-80.4-32.9-78.5-99.8c0,0,28.1,11.6,41.7,11.6c0,0-71.7-49.4-29.1-141.4c0,0,55.2,106.6,206.3,107.5l0.2-0.1
	c-1.1-5.9-1.7-12.1-1.7-18.3c0-55.9,45.3-101.2,101.2-101.2c28.6,0,54.4,11.9,72.8,30.9l0.8-0.4c0,0,6-1.6,14.2-4
	c13.9-4,34.1-10.2,42-14.4c0,0-8.2,30.9-33.4,48.7c-0.8,0.6-1.6,1.1-2.4,1.7c0,0,1,0,2.7-0.1c7.7-0.4,30-2.4,50.5-13.5
	C495.3,106.2,474.2,134.6,450,154.6z"></path></svg>