<svg id="SvgjsSvg1046" width="288"  height="288" xmlns="http://www.w3.org/2000/svg" version="1.1" xmlns:xlink="http://www.w3.org/1999/xlink" xmlns:svgjs="http://svgjs.com/svgjs"><defs id="SvgjsDefs1047"></defs><g id="SvgjsG1048"><svg xmlns="http://www.w3.org/2000/svg" viewBox="0 0 24 24" width="288" height="288"><g data-name="Layer 2"><path fill="#3A2152" d="M22,12a1,1,0,0,0-1,1v6a2,2,0,0,1-2,2H5a2,2,0,0,1-2-2V5A2,2,0,0,1,5,3h6a1,1,0,0,0,0-2H5A4,4,0,0,0,1,5V19a4,4,0,0,0,4,4H19a4,4,0,0,0,4-4V13A1,1,0,0,0,22,12Z" class="color699efa svgShape"></path><path fill="#3A2152" d="M22.922,1.614a.989.989,0,0,0-.186-.278c-.012-.013-.016-.03-.029-.043s-.03-.017-.043-.029A.939.939,0,0,0,22,1H16a1,1,0,0,0,0,2h3.586l-7.293,7.293a1,1,0,1,0,1.414,1.414L21,4.414V8a1,1,0,0,0,2,0V2A.99.99,0,0,0,22.922,1.614Z" class="color699efa svgShape"></path></g></svg></g></svg>